<svg width="72" height="72" viewBox="0 0 72 72" fill="none" xmlns="http://www.w3.org/2000/svg">
<path fill-rule="evenodd" clip-rule="evenodd" d="M66.1456 34.359C67.3455 33.2974 69.2049 30.2952 69.2049 30.2952C69.2049 30.2952 69.8492 36.2105 69.031 40.2186C68.2128 44.2262 64.746 53.4097 57.7903 54.6077C50.8351 55.8058 42.3858 51.7545 42.3858 51.7545L51.4477 66.5879H1.94592C1.94592 66.5879 3.9503 44.0531 11.3345 29.8204C18.9588 15.1249 23.6233 13.7649 23.6233 13.7649C23.6233 13.7649 20.9072 12.2109 20.5451 9.7285C20.1831 7.2466 20.5736 5.83786 20.5736 5.83786C20.5736 5.83786 23.5457 7.52742 24.9022 8.49567C26.2586 9.46392 26.9047 11.2282 26.9047 11.2282C26.9047 11.2282 29.8966 10.5654 33.557 11.0008C37.218 11.4366 40.3186 14.1812 40.3186 14.1812C40.3186 14.1812 41.4956 13.5128 43.1132 11.9467C44.7302 10.3807 44.778 8.76675 44.778 8.76675C44.778 8.76675 47.1829 10.3788 46.9888 12.6982C46.7952 15.0181 43.2747 18.6966 43.2747 18.6966C43.2747 18.6966 46.714 25.9107 48.9427 29.6352C51.1715 33.3596 53.894 35.5477 55.6937 35.8619C57.4934 36.1767 58.3199 35.7844 59.87 34.2815C61.4205 32.7785 62.4351 30.6874 62.4351 30.6874C62.4351 30.6874 63.0353 32.1222 63.1161 33.2687C63.1973 34.4147 62.9825 36.204 62.9825 36.204C64.0586 36.1112 64.9456 35.4205 66.1456 34.359ZM30.7917 30.2799L36.0329 38.5757L36.552 34.5183L40.5067 32.4954L30.7917 30.2799Z" fill="white"/>
</svg>
