<svg width="32" height="32" viewBox="0 0 32 32" fill="none" xmlns="http://www.w3.org/2000/svg">
<path fill-rule="evenodd" clip-rule="evenodd" d="M29.398 15.2707C29.9314 14.7989 30.7578 13.4645 30.7578 13.4645C30.7578 13.4645 31.0441 16.0936 30.6805 17.8749C30.3168 19.6561 28.776 23.7377 25.6846 24.2701C22.5934 24.8026 18.8382 23.002 18.8382 23.002L22.8657 29.5946H0.864868C0.864868 29.5946 1.7557 19.5791 5.03759 13.2535C8.42614 6.72217 10.4992 6.11772 10.4992 6.11772C10.4992 6.11772 9.29209 5.42705 9.13118 4.32378C8.97027 3.22071 9.14383 2.5946 9.14383 2.5946C9.14383 2.5946 10.4648 3.34552 11.0676 3.77585C11.6705 4.20619 11.9577 4.99032 11.9577 4.99032C11.9577 4.99032 13.2874 4.69573 14.9143 4.88923C16.5413 5.08294 17.9194 6.30277 17.9194 6.30277C17.9194 6.30277 18.4425 6.00571 19.1614 5.30966C19.8801 4.61362 19.9013 3.89633 19.9013 3.89633C19.9013 3.89633 20.9702 4.6128 20.8839 5.64366C20.7979 6.67472 19.2332 8.30962 19.2332 8.30962C19.2332 8.30962 20.7618 11.5159 21.7523 13.1712C22.7429 14.8265 23.9529 15.799 24.7528 15.9386C25.5527 16.0785 25.92 15.9042 26.6089 15.2362C27.298 14.5682 27.7489 13.6389 27.7489 13.6389C27.7489 13.6389 28.0157 14.2765 28.0516 14.7861C28.0877 15.2954 27.9923 16.0907 27.9923 16.0907C28.4705 16.0494 28.8647 15.7425 29.398 15.2707ZM13.6852 13.4577L16.0146 17.1448L16.2453 15.3414L18.003 14.4424L13.6852 13.4577Z" fill="url(#paint0_linear_2_146)"/>
<defs>
<linearGradient id="paint0_linear_2_146" x1="15.8649" y1="2.5946" x2="15.8649" y2="29.5946" gradientUnits="userSpaceOnUse">
<stop stop-color="#4746FB"/>
<stop offset="1" stop-color="#43B9FB"/>
</linearGradient>
</defs>
</svg>
